Coordinates
version=1
nRows=8
nColumns=36
inDegrees=yes

Units are S.I. units (second, meters, Newtons, ...)
If the header above contains a line with 'inDegrees', this indicates whether rotational values are in degrees (yes) or radians (no).

endheader
time	pelvis_tilt	pelvis_list	pelvis_rotation	pelvis_tx	pelvis_ty	pelvis_tz	hip_flexion_r	hip_adduction_r	hip_rotation_r	knee_angle_r	knee_angle_r_beta	ankle_angle_r	subtalar_angle_r	mtp_angle_r	hip_flexion_l	hip_adduction_l	hip_rotation_l	knee_angle_l	knee_angle_l_beta	ankle_angle_l	subtalar_angle_l	mtp_angle_l	lumbar_extension	lumbar_bending	lumbar_rotation	arm_flex_r	arm_add_r	arm_rot_r	elbow_flex_r	pro_sup_r	arm_flex_l	arm_add_l	arm_rot_l	elbow_flex_l	pro_sup_l
      5.21666670	      1.16275102	     -0.56619464	      1.32343417	     -1.12862590	      1.20177641	      0.04094272	     27.21093064	      1.91160281	     -4.01531363	      7.45437366	      0.13010336	     -6.64987276	    -11.10604885	     -7.49999987	    -17.63140319	      3.95524547	     -2.49814822	     16.69914586	      0.29145508	     11.03934271	      6.73737419	     -7.49999987	     -4.55965403	      2.18144874	    -12.13692109	     -7.54234466	    -10.81999224	    -10.29670637	     16.65578633	     68.26947757	     -1.21711091	    -12.82150580	      1.12436782	     50.87734052	     75.42670696
      5.22500000	      0.88882922	     -0.68139755	      1.43669148	     -1.11602263	      1.20227475	      0.04150628	     27.28742633	      2.03227599	     -3.86268473	      8.09415877	      0.14126972	     -6.65766296	    -12.13394456	     -7.49999987	    -16.99202591	      3.41781389	     -3.33487111	     18.38242525	      0.32083385	     10.11920894	      7.73513676	     -7.49999987	     -4.11338549	      2.35697943	    -12.27340059	     -7.80428836	    -10.83280480	    -10.36166679	     16.69205905	     68.15156278	     -1.34335432	    -12.61137283	      1.16292099	     50.61747479	     75.96512375
      5.23333330	      0.98190055	     -0.84871414	      1.52018446	     -1.10343930	      1.20405114	      0.04207640	     26.86601103	      2.22164352	     -3.88036622	      8.64737707	      0.15092520	     -6.43397573	    -12.53701505	     -7.49999987	    -16.71866964	      2.85090487	     -3.93458941	     20.01443497	      0.34931779	      8.38368808	      7.99784226	     -7.49999987	     -4.15268886	      2.62144031	    -12.31842432	     -7.93786742	    -10.86416098	    -10.37695780	     16.64137586	     68.12860385	     -1.42944907	    -12.37440238	      1.20339090	     50.51325063	     76.07242119
      5.24166670	      0.75448043	     -0.98490162	      1.64845450	     -1.09070028	      1.20481699	      0.04288951	     26.79278805	      2.39524878	     -3.70209429	      9.25591203	      0.16154614	     -6.75050594	    -13.45958647	     -7.49999987	    -15.72141250	      2.12531195	     -4.96097662	     22.40996522	      0.39112768	      7.04820478	      9.15313719	     -7.49999987	     -3.65357008	      2.83305757	    -12.46035301	     -8.20665499	    -10.84319267	    -10.45212412	     16.64408589	     68.02616864	     -1.63891345	    -12.13106264	      1.21365883	     50.01463911	     76.57714010
      5.25000000	      0.75784923	     -1.14475346	      1.75729990	     -1.07829316	      1.20575692	      0.04367397	     26.43503335	      2.60599951	     -3.64069210	      9.80098378	      0.17105944	     -6.91830729	    -14.01815560	     -7.49999987	    -14.81890273	      1.35393798	     -5.82921946	     25.00307100	      0.43638591	      5.35156962	      9.73813398	     -7.49999987	     -3.51382973	      3.07830803	    -12.51267962	     -8.35520719	    -10.83327596	    -10.50658012	     16.63685231	     67.95265383	     -1.78485344	    -11.89137080	      1.25533408	     49.64958278	     76.98490908
      5.25833330	      0.98800762	     -1.26655012	      1.76919355	     -1.06617403	      1.20651707	      0.04457982	     25.81088205	      2.83131347	     -3.50636984	     10.25740288	      0.17902545	     -6.78994867	    -14.24904106	     -7.49999987	    -14.08563508	      0.63034394	     -6.64759905	     27.67361912	      0.48299577	      3.35350532	      9.87101744	     -7.49999987	     -3.73877963	      3.27835912	    -12.46251922	     -8.35710535	    -10.76766914	    -10.50755985	     16.63133423	     67.93811397	     -1.88590713	    -11.73635977	      1.28335206	     49.45967308	     77.09014112
      5.26666670	      0.79293524	     -1.50806551	      1.91813812	     -1.05389044	      1.20637572	      0.04549401	     25.59751632	      3.12125480	     -3.55690217	     10.61399706	      0.18524920	     -6.82425573	    -14.82433503	     -7.49999987	    -12.68305244	     -0.34092076	     -7.38011158	     30.75042672	      0.53669619	      2.46150438	     10.45232912	     -7.49999987	     -3.30378411	      3.62864382	    -12.59412288	     -8.51807887	    -10.74039407	    -10.54772122	     16.70607008	     67.89038545	     -2.09095859	    -11.51951416	      1.38066617	     48.96782305	     77.44209833
      5.27500000	      0.73497311	     -1.68068212	      1.93622951	     -1.04176066	      1.20593572	      0.04661106	     25.19691708	      3.39966898	     -3.49418160	     10.86549374	      0.18963864	     -6.56057941	    -15.12467113	     -7.49999987	    -11.58830755	     -1.15022624	     -7.97833710	     33.42046804	      0.58329720	      1.52901238	     10.49665100	     -7.49999987	     -3.06929554	      3.87041576	    -12.55730898	     -8.57748438	    -10.66928502	    -10.56817767	     16.76871438	     67.85692485	     -2.23961736	    -11.35661509	      1.47712540	     48.50429066	     77.79291004
